<svg xmlns="http://www.w3.org/2000/svg" fill="none" viewBox="-0.5 -0.5 24 24" id="Check-Circle--Streamline-Rounded-Material-Symbols.svg" height="24" width="24"><desc>Check Circle Streamline Icon: https://streamlinehq.com</desc><path fill="#000000" d="m10.086458333333335 13.680208333333335 -2.347916666666667 -2.347916666666667c-0.14375 -0.14375 -0.31946041666666664 -0.215625 -0.5270833333333333 -0.215625 -0.20762291666666668 0 -0.39133541666666666 0.07987708333333333 -0.5510416666666667 0.23958333333333334 -0.14375 0.14375 -0.215625 0.31946041666666664 -0.215625 0.5270833333333333 0 0.20762291666666668 0.071875 0.38333333333333336 0.215625 0.5270833333333333l2.9229166666666666 2.9468750000000004c0.14375 0.14375 0.31145833333333334 0.215625 0.503125 0.215625s0.359375 -0.071875 0.503125 -0.215625L16.315625 9.631250000000001c0.15970625 -0.15970625 0.23958333333333334 -0.34341875 0.23958333333333334 -0.5510416666666667 0 -0.20762291666666668 -0.07987708333333333 -0.39133541666666666 -0.23958333333333334 -0.5510416666666667 -0.15970625 -0.14375 -0.34739583333333335 -0.21164791666666666 -0.5630208333333334 -0.20364583333333333 -0.215625 0.008002083333333333 -0.3953125 0.08385416666666666 -0.5390625 0.22760416666666666l-5.127083333333333 5.127083333333333ZM11.5 21.083333333333336c-1.30970625 0 -2.5475854166666667 -0.2515625 -3.713541666666667 -0.7546875 -1.16595625 -0.503125 -2.1841854166666668 -1.1899145833333333 -3.0546875 -2.060416666666667 -0.8704877083333333 -0.8705020833333333 -1.5572916666666667 -1.88873125 -2.060416666666667 -3.0546875C2.168229166666667 14.047585416666667 1.9166666666666667 12.80970625 1.9166666666666667 11.5c0 -1.325710416666667 0.2515625 -2.57154375 0.7546875 -3.7375000000000003 0.503125 -1.16595625 1.1899289583333335 -2.1802083333333333 2.060416666666667 -3.042708333333333 0.8705020833333333 -0.8625 1.88873125 -1.5453125 3.0546875 -2.0484375000000004C8.952414583333333 2.168229166666667 10.19029375 1.9166666666666667 11.5 1.9166666666666667c1.325710416666667 0 2.57154375 0.2515625 3.7375000000000003 0.7546875 1.16595625 0.503125 2.1802083333333333 1.1859375 3.042708333333333 2.0484375000000004 0.8625 0.8625 1.5453125 1.8767520833333335 2.0484375000000004 3.042708333333333C20.831770833333334 8.92845625 21.083333333333336 10.174289583333334 21.083333333333336 11.5c0 1.30970625 -0.2515625 2.5475854166666667 -0.7546875 3.713541666666667 -0.503125 1.16595625 -1.1859375 2.1841854166666668 -2.0484375000000004 3.0546875 -0.8625 0.8705020833333333 -1.8767520833333335 1.5572916666666667 -3.042708333333333 2.060416666666667C14.071543750000002 20.831770833333334 12.825710416666666 21.083333333333336 11.5 21.083333333333336Zm0 -1.4375c2.2680395833333336 0 4.192708333333334 -0.7946020833333334 5.773958333333334 -2.3838541666666666C18.855208333333334 15.672727083333335 19.645833333333336 13.752083333333333 19.645833333333336 11.5c0 -2.2680395833333336 -0.790625 -4.192708333333334 -2.371875 -5.773958333333334C15.692708333333334 4.144791666666667 13.768039583333334 3.354166666666667 11.5 3.354166666666667c-2.2520833333333337 0 -4.172727083333333 0.790625 -5.761979166666667 2.371875C4.148783125 7.307291666666667 3.354166666666667 9.231960416666666 3.354166666666667 11.5c0 2.2520833333333337 0.7946164583333334 4.172727083333333 2.3838541666666666 5.761979166666667C7.327272916666667 18.85123125 9.247916666666667 19.645833333333336 11.5 19.645833333333336Z" stroke-width="1"></path></svg>