<svg xmlns="http://www.w3.org/2000/svg" fill="none" viewBox="-0.5 -0.5 24 24" id="Edit--Streamline-Rounded-Material-Symbols.svg" height="24" width="24"><desc>Edit Streamline Icon: https://streamlinehq.com</desc><path fill="#000000" d="M4.3125 18.687883333333332h1.0541666666666667l11.308333333333334 -11.284375 -1.0541666666666667 -1.0541666666666667L4.3125 17.63371666666667v1.0541666666666667Zm-0.71875 1.4375c-0.20763729166666667 0 -0.379341875 -0.06789791666666667 -0.5151041666666667 -0.20364583333333333 -0.13576229166666667 -0.13579583333333334 -0.20364583333333333 -0.30748125000000004 -0.20364583333333333 -0.5151041666666667v-1.7489583333333334c0 -0.19166666666666668 0.039928958333333334 -0.37935625 0.11979166666666667 -0.5630208333333334 0.07986270833333334 -0.18371250000000003 0.18367895833333334 -0.3394416666666667 0.31145833333333334 -0.46718750000000003L16.651041666666668 3.30662375c0.12779375 -0.127779375 0.2794979166666667 -0.22760416666666666 0.4552083333333333 -0.2994791666666667 0.17571041666666667 -0.071875 0.359375 -0.1078125 0.5510416666666667 -0.1078125 0.17571041666666667 0 0.35137291666666665 0.0359375 0.5270833333333333 0.1078125 0.17571041666666667 0.071875 0.33541666666666664 0.17169979166666666 0.4791666666666667 0.2994791666666667l1.0541666666666667 1.0541666666666667c0.14375 0.14375 0.2475854166666667 0.303470625 0.31145833333333334 0.47917624999999997 0.06387291666666667 0.1756625 0.09583333333333334 0.35137291666666665 0.09583333333333334 0.5270833333333333 0 0.1756625 -0.0359375 0.35535000000000005 -0.1078125 0.5390625 -0.071875 0.18366458333333333 -0.17168541666666667 0.33939375000000005 -0.2994791666666667 0.46718750000000003l-13.344791666666667 13.320833333333335c-0.12779375 0.12774583333333334 -0.2835229166666667 0.23158125000000002 -0.46718750000000003 0.31145833333333334 -0.18366458333333333 0.07982916666666667 -0.3713541666666667 0.11979166666666667 -0.5630208333333334 0.11979166666666667H3.59375Zm12.554166666666667 -13.248958333333333 -0.5270833333333333 -0.5270833333333333 1.0541666666666667 1.0541666666666667 -0.5270833333333333 -0.5270833333333333Z" stroke-width="1"></path></svg>